HIERARCHY
ROOT Hips
{
	OFFSET 0.00000 0.00000 0.00000
	CHANNELS 6 Xposition Yposition Zposition Zrotation Yrotation Xrotation 
	JOINT LHipJoint
	{
		OFFSET 0 0 0
		CHANNELS 3 Zrotation Yrotation Xrotation
		JOINT LeftHip
		{
			OFFSET 1.29432 -1.88279 0.59910
			CHANNELS 3 Zrotation Yrotation Xrotation
			JOINT LeftKnee
			{
				OFFSET 2.63039 -7.22694 0.00000
				CHANNELS 3 Zrotation Yrotation Xrotation
				JOINT LeftAnkle
				{
					OFFSET 2.70674 -7.43672 0.00000
					CHANNELS 3 Zrotation Yrotation Xrotation
					JOINT LeftToe
					{
						OFFSET 0.15066 -0.41394 2.09027
						CHANNELS 3 Zrotation Yrotation Xrotation
						End Site
						{
							OFFSET 0.00000 -0.00000 1.07518
						}
					}
				}
			}
		}
	}
	JOINT RHipJoint
	{
		OFFSET 0 0 0
		CHANNELS 3 Zrotation Yrotation Xrotation
		JOINT RightHip
		{
			OFFSET -1.37068 -1.88279 0.59910
			CHANNELS 3 Zrotation Yrotation Xrotation
			JOINT RightKnee
			{
				OFFSET -2.57023 -7.06166 0.00000
				CHANNELS 3 Zrotation Yrotation Xrotation
				JOINT RightAnkle
				{
					OFFSET -2.76461 -7.59570 0.00000
					CHANNELS 3 Zrotation Yrotation Xrotation
					JOINT RightToe
					{
						OFFSET -0.24175 -0.64785 2.19719
						CHANNELS 3 Zrotation Yrotation Xrotation
						End Site
						{
							OFFSET -0.00000 -0.00000 1.14803
						}
					}
				}
			}
		}
	}
	JOINT lowerback
	{
		OFFSET 0 0 0
		CHANNELS 3 Zrotation Yrotation Xrotation
		JOINT Chest
		{
			OFFSET -0.03138 2.03983 -0.23106
			CHANNELS 3 Zrotation Yrotation Xrotation
			JOINT Chest2
			{
				OFFSET -0.00325 2.06238 -0.06878
				CHANNELS 3 Zrotation Yrotation Xrotation
				JOINT lowerneck
				{
					OFFSET 0 0 0
					CHANNELS 3 Zrotation Yrotation Xrotation
					JOINT Neck
					{
						OFFSET -0.00002 1.75318 0.18090
						CHANNELS 3 Zrotation Yrotation Xrotation
						JOINT Head
						{
							OFFSET 0.08806 1.75856 -0.25387
							CHANNELS 3 Zrotation Yrotation Xrotation
							End Site
							{
								OFFSET 0.02554 1.78597 -0.10684
							}
						}
					}
				}
				JOINT LeftCollar
				{
					OFFSET 0 0 0
					CHANNELS 3 Zrotation Yrotation Xrotation
					JOINT LeftShoulder
					{
						OFFSET 3.09657 1.33597 -0.04414
CHANNELS 3 Zrotation Xrotation Yrotation
						JOINT LeftElbow
						{
OFFSET 0 -5.342980 -0.000000
CHANNELS 3 Zrotation Xrotation Yrotation
							JOINT LeftWrist
							{
OFFSET 0 -3.672620 -0.000000
CHANNELS 3 Zrotation Xrotation Yrotation
								JOINT lhand
								{
									OFFSET 0 0 0
CHANNELS 3 Zrotation Xrotation Yrotation
									JOINT LFingers
									{
OFFSET 0 -0.599300 -0.000000
CHANNELS 3 Zrotation Xrotation Yrotation
										End Site
										{
OFFSET 0 -0.483170 -0.000000
										}
									}
								}
								JOINT LThumb
								{
OFFSET 0 0.000000 0.000000
CHANNELS 3 Zrotation Xrotation Yrotation
									End Site
									{
OFFSET 0 -0.490550 0.490550
									}
								}
							}
						}
					}
				}
				JOINT RightCollar
				{
					OFFSET 0 0 0
					CHANNELS 3 Zrotation Yrotation Xrotation
					JOINT RightShoulder
					{
						OFFSET -3.16460 1.32273 -0.23382
CHANNELS 3 Zrotation Xrotation Yrotation
						JOINT RightElbow
						{
OFFSET 0 -5.549670 0.033480
CHANNELS 3 Zrotation Xrotation Yrotation
							JOINT RightWrist
							{
OFFSET 0 -3.694010 0.000000
CHANNELS 3 Zrotation Xrotation Yrotation
								JOINT rhand
								{
									OFFSET 0 0 0
CHANNELS 3 Zrotation Xrotation Yrotation
									JOINT RFingers
									{
OFFSET 0 -0.638110 0.000000
CHANNELS 3 Zrotation Xrotation Yrotation
										End Site
										{
OFFSET 0 -0.514460 0.000000
										}
									}
								}
								JOINT RThumb
								{
OFFSET 0 0.000000 0.000000
CHANNELS 3 Zrotation Xrotation Yrotation
									End Site
									{
OFFSET 0 -0.522320 0.522320
									}
								}
							}
						}
					}
				}
			}
		}
	}
}
MOTION
Frames: 4
Frame Time: 0.008333333333333333
7.433100 10.410000 11.965200 178.584000 -5.933700 161.751000 0.000000 0.000000 0.000000 11.792100 5.443900 -66.336500 25.477300 19.265000 106.205300 -1.393500 -24.060300 -4.865400 0.039500 -1.283400 -3.529000 0.000000 0.000000 0.000000 -8.330300 -4.316000 -72.934600 -27.321000 -18.663200 111.874600 -0.362700 9.502500 -11.784000 -0.042300 -1.328100 3.652100 5.398300 5.611100 38.888200 0.382300 2.257700 17.906500 -3.135900 -1.268000 1.099000 12.090100 19.341500 1.076800 -28.529600 24.357600 -14.838600 -9.419800 12.519200 0.836600 0.000000 -0.000000 0.000000 5.316700 -57.060500 -69.581100 37.579200 -46.568500 16.659400 15.375200 24.123200 -17.076300 0.000000 0.000000 0.000000 -7.125000 0.000000 0.000000 -11.965900 47.288800 0.685200 0.000000 -0.000000 0.000000 -26.996700 -55.334600 45.371500 -41.433600 -48.896700 -19.512700 -49.692900 -32.466600 -24.629500 0.000000 0.000000 0.000000 7.125000 0.000000 -0.000000 -11.770800 -4.689200 -12.960800
7.434140 10.410240 11.967599 178.676761 -5.988397 161.564678 0.000000 0.000000 0.000000 11.752357 5.408395 -66.187602 25.441395 19.274756 106.096545 -1.323449 -23.927316 -5.474826 0.114749 -2.140802 -5.896491 0.000000 0.000000 0.000000 -8.240418 -4.442107 -72.706055 -27.311884 -18.666639 111.846132 -0.354543 9.581267 -11.714109 -0.135621 -2.320566 6.394475 5.484904 5.604223 38.604239 0.451151 2.126315 18.258033 -3.081603 -1.364520 1.573842 12.058193 19.411711 0.995234 -28.777816 24.399103 -15.039796 -9.479615 12.544230 0.837720 0.000000 0.000000 0.000000 5.539887 -57.406356 -69.244121 37.579440 -46.568580 16.659480 15.436854 24.195730 -17.158666 0.000000 0.000000 0.000000 -7.125000 0.000000 0.000000 -11.934233 47.379802 0.710469 0.000000 0.000000 0.000000 -27.245396 -55.698048 45.257787 -41.494055 -48.930606 -19.558281 -49.719449 -32.424697 -24.516747 0.000000 0.000000 0.000000 7.125000 0.000000 0.000000 -11.816381 -4.560774 -12.988548
7.435719 10.412577 11.973894 178.791098 -6.023137 161.331608 0.000000 0.000000 0.000000 11.875811 5.347478 -65.971459 25.431741 19.277380 106.067382 -1.345816 -23.986417 -5.309195 0.095123 -1.962138 -5.401992 0.000000 0.000000 0.000000 -8.115414 -4.530876 -72.427347 -27.298752 -18.671635 111.805138 -0.355796 9.491682 -11.697919 -0.111593 -2.122218 5.844598 5.658591 5.555153 38.678078 0.460549 2.030410 18.419818 -3.137523 -1.429155 1.739848 12.118644 19.456749 0.944114 -28.932717 24.435871 -15.153549 -9.523068 12.561827 0.854721 0.000000 0.000000 0.000000 5.615398 -57.526083 -69.096231 37.558404 -46.554935 16.644217 15.410826 24.287078 -17.109358 0.000000 0.000000 0.000000 -7.125000 0.000000 0.000000 -11.943021 47.326844 0.695164 0.000000 0.000000 0.000000 -27.206233 -55.847655 45.214856 -41.542343 -48.957619 -19.594692 -49.723403 -32.342520 -24.465306 0.000000 0.000000 0.000000 7.125000 0.000000 0.000000 -11.832595 -4.498274 -12.995200
7.436361 10.412544 11.977501 178.844419 -5.996542 161.240516 0.000000 0.000000 0.000000 12.030755 5.348769 -65.887969 25.441873 19.274627 106.098060 -1.405377 -24.105376 -4.795037 0.047814 -1.339882 -3.685624 0.000000 0.000000 0.000000 -8.050052 -4.478647 -72.329095 -27.293256 -18.673722 111.787926 -0.356005 9.406271 -11.670990 -0.119560 -2.184174 6.016592 5.799900 5.493934 38.879577 0.375979 2.005816 18.365241 -3.288737 -1.430824 1.629935 12.240768 19.471469 0.932059 -28.929264 24.467704 -15.149496 -9.528215 12.571834 0.879506 0.000000 0.000000 0.000000 5.703392 -57.428501 -69.081251 37.546375 -46.547157 16.635516 15.346352 24.327102 -17.018790 0.000000 0.000000 0.000000 -7.125000 0.000000 0.000000 -11.974669 47.227243 0.667214 0.000000 0.000000 0.000000 -26.899998 -55.750263 45.302835 -41.598335 -48.988833 -19.636936 -49.755196 -32.209055 -24.409102 0.000000 0.000000 0.000000 7.125000 0.000000 0.000000 -11.865485 -4.443128 -13.022291
